<svg xmlns="http://www.w3.org/2000/svg" viewBox="0 0 251.01 59.26"><defs><style>.cls-1{fill:#56585b;}.cls-2{fill:#e04403;}</style></defs><g id="Layer_2" data-name="Layer 2"><g id="Layer_1-2" data-name="Layer 1"><path class="cls-1" d="M22.2,14.48H51.07c4.22,0,7.05-.18,9.51,3.43a14.155,14.155,0,0,1,2.28,10.32,20.381,20.381,0,0,1-4.09,10.42,12.666,12.666,0,0,1-4.44,3.95c-2.44,1.23-3.99,1.05-6.46,1.05H18.76v-.11L17.1,57.42H47.52c8.35,0,16.39-1.82,23.13-8.05a33.118,33.118,0,0,0,10.89-20.7c1.06-8.61-.97-14.53-6.57-20.51C69.25,1.91,62.08.89,53.38.89H23.84L22.2,14.63Z"/><path class="cls-1" d="M106.96,2.36l-.87,7.31.21-.69c3.55-5.37,9.15-7.46,15.34-7.46,6.5,0,10.68,2.48,13.18,8.15,4.33-5.88,9.87-8.15,16.79-8.15,4.44,0,8.34,1.34,11.04,4.54,3.33,3.92,2.7,9.08,2.02,14.65l-4.58,36.65H142.37l4.23-34.45c.42-3.4.38-7.22-4.37-7.22-5.78,0-6.92,5.37-7.44,9.6l-3.94,32.08H112.88l4.23-34.45c.4-3.3.02-7.53-4.41-7.53-4.85,0-6.4,3.61-6.88,7.53l-4.23,34.45H82.25l6.81-55h17.9Z"/><polygon class="cls-1" points="230.17 0.82 228.43 15.77 244.58 15.77 227.43 23.55 223.21 57.45 244.06 57.45 251.01 0.82 230.17 0.82"/><path class="cls-1" d="M214.93,25.7c-3.99-2.63-10.54-3.37-15.3-4a35.723,35.723,0,0,1-5.25-1.23,13.267,13.267,0,0,1-1.84-.53c-.22-.06-.45-.13-.66-.19a3.271,3.271,0,0,1-1.45-.95,3.444,3.444,0,0,1-1.53-2.64,2.855,2.855,0,0,1,.4-1.34c.03-.04.04-.09.07-.13,1.14-1.84,4.31-3.18,8.1-3.18,4.57,0,8.26,1.94,8.52,4.38h17.75C221.4,5.78,210.24,0,200.14,0c-6,0-13.61.84-19.27,4.11-5.44,3.16-9.34,7.42-10.09,13.53-1.76,14.32,11.17,16.99,22.24,18.57a16.955,16.955,0,0,1,3.13.83c3.43.72,5.86,2.53,5.86,4.64,0,2.45-3.25,4.48-7.55,4.9a6.273,6.273,0,0,1-1.27.17c-2.73,0-4.6-.19-5.97-1.11a5.909,5.909,0,0,1-3.44-2.95h-18.6c2.48,12.42,13.52,16.57,24.7,16.57,12.11,0,28.93-4.33,30.76-19.17.59-4.66-1.01-11.13-5.71-14.39"/><polygon class="cls-2" points="2.46 23.56 38.3 23.56 0 41.75 2.46 23.56"/></g></g></svg>